<svg xmlns="http://www.w3.org/2000/svg" version="1.1" xmlns:xlink="http://www.w3.org/1999/xlink" xmlns:svgjs="http://svgjs.dev/svgjs" width="100%" height="100%" viewBox="0 0 1000 600"><rect width="1000" height="600" x="0" y="0" fill="#ee4e34"/><g><circle r="166.66666666666666" cx="369.907480875651" cy="392.12970965663135" fill="#fcedda" transform="matrix(0.6150339529953546,0,0,0.6150339529953546,0,58.82692816466451)"/><path d="M316.47877140692106 334.268524950421L316.47877140692106 317.12968793211155L377.1260518247485 317.12968793211155Q387.2010988732785 317.12968793211155 395.67201831910967 319.7469487575677Q404.14293776494077 322.39235217254486 410.3061648700471 327.4861608758519Q416.49753456467454 332.57996957915896 419.9027878967196 340.1784687498381Q423.3361838182857 347.80511051003816 423.3361838182857 357.711302021442L423.3361838182857 357.711302021442Q423.3361838182857 365.9289381615838 419.95907307576164 373.1897262580105Q416.61010492275864 380.4505143544372 410.4750204071733 385.9101767215177Q404.33993589158797 391.3416964990772 395.78458867719377 394.52180911495395Q387.2010988732785 397.67377914130975 376.732055571454 397.67377914130975L376.732055571454 397.67377914130975L350.1091658845562 397.67377914130975L350.1091658845562 450.10342341899536L365.13730868878815 450.10342341899536L365.13730868878815 467.1296900792207L316.47877140692106 467.1296900792207L316.47877140692106 450.10342341899536L330.7189217045641 450.10342341899536L330.7189217045641 334.268524950421L316.47877140692106 334.268524950421ZM374.64950394689754 334.268524950421L350.1091658845562 334.268524950421L350.1091658845562 381.43550498767337L377.1260518247485 381.43550498767337Q382.7545697289552 381.43550498767337 387.4543821789678 379.9158051535376Q392.15419462898046 378.3679627298807 395.5594479610255 375.41299083017213Q398.9928438825916 372.45801893046365 400.90653997002187 367.9833471966193Q402.84837864697323 363.536818052296 402.84837864697323 357.711302021442L402.84837864697323 357.711302021442Q402.84837864697323 346.6231217501548 396.1222997514462 340.43175205552734Q389.3962208559192 334.268524950421 374.64950394689754 334.268524950421L374.64950394689754 334.268524950421Z " fill="#ee4e34" transform="matrix(0.6150339529953546,0,0,0.6150339529953546,0,58.82692816466451)"/><path d="M619.9074785560767 337.26770173650857L619.9074785560767 320.8937998722095L677.8479687327015 320.8937998722095Q687.4733494673799 320.8937998722095 695.5661975152518 323.3942479401567Q703.6590455631238 325.9215825464688 709.5471974650638 330.788045990538Q715.4622359053689 335.6545094346072 718.7155070475367 342.9138747931635Q721.9956647280695 350.2001266900847 721.9956647280695 359.66418819457283L721.9956647280695 359.66418819457283Q721.9956647280695 367.5150573971596 718.7692801242667 374.45178429533553Q715.569782058829 381.3885111935115 709.7085166952539 386.60449963632595Q703.8472513316789 391.79360154077546 695.6737436687118 394.83178037602306Q687.4733494673799 397.84307267290563 677.4715571955912 397.84307267290563L677.4715571955912 397.84307267290563L652.0368919022794 397.84307267290563L652.0368919022794 447.9326936469437L666.3943033892017 447.9326936469437L666.3943033892017 464.19904935778266L619.9074785560767 464.19904935778266L619.9074785560767 447.9326936469437L633.5120669687784 447.9326936469437L633.5120669687784 337.26770173650857L619.9074785560767 337.26770173650857ZM675.4819533565794 337.26770173650857L652.0368919022794 337.26770173650857L652.0368919022794 382.3295400362873L677.8479687327015 382.3295400362873Q683.2252764057062 382.3295400362873 687.715328312665 380.87766696457606Q692.2053802196239 379.3989073544998 695.4586513617917 376.57582082617233Q698.7388090423244 373.75273429784494 700.567093651146 369.47777469780624Q702.4222647983327 365.22970163613263 702.4222647983327 359.66418819457283L702.4222647983327 359.66418819457283Q702.4222647983327 349.07089207875373 695.9963821290921 343.15585363844866Q689.5704994598516 337.26770173650857 675.4819533565794 337.26770173650857L675.4819533565794 337.26770173650857ZM734.7398839130905 415.2386629950756L734.7398839130905 415.2386629950756Q734.8474300665505 403.5967918830206 738.4771127458287 394.05207076343737Q742.1067954251067 384.5073496438542 748.6402242478074 377.6512823607733Q755.173653070508 370.8221016160574 764.1537568844257 367.11175932168425Q773.1338606983435 363.42830356567606 783.8884760443526 363.42830356567606L783.8884760443526 363.42830356567606Q794.777524082187 363.42830356567606 803.7845144344698 367.11175932168425Q812.8183913251175 370.8221016160574 819.244273994358 377.57062274567824Q825.6701566635985 384.319143875299 829.2729528045116 393.8638649948822Q832.8488624070598 403.40858611446544 832.8488624070598 415.0504572265204L832.8488624070598 415.0504572265204Q832.8488624070598 426.47723603165525 829.2729528045116 436.0757302279685Q825.6701566635985 445.67422442428176 819.244273994358 452.5840647840927Q812.8183913251175 459.46701860553856 803.7845144344698 463.3117935917369Q794.777524082187 467.1296820395702 783.8884760443526 467.1296820395702L783.8884760443526 467.1296820395702Q772.8381087763281 467.1296820395702 763.8580049624105 463.3386801301019Q754.8779011484927 459.5745647589987 748.4520184792522 452.71849747591784Q742.0261358100116 445.8624301928369 738.4233396690986 436.3177090732537Q734.8474300665505 426.7729879536705 734.7398839130905 415.2386629950756ZM753.3722550000515 415.2386629950756L753.3722550000515 415.2386629950756Q753.3722550000515 423.6541495033278 755.7651569145385 430.45644370967864Q758.1849453673906 437.25873791602953 762.4061318906992 442.0445417450036Q766.6004318756428 446.8034590356127 772.1390587788376 449.41145325701996Q777.6507991436673 451.99256094006216 783.8884760443526 451.99256094006216L783.8884760443526 451.99256094006216Q790.4219048670533 451.99256094006216 796.041191385343 449.46522633374997Q801.6604779036329 446.9110051890728 805.8278913502115 442.1252013600987Q809.99530479679 437.36628406948955 812.3613201729121 430.53710332477374Q814.7004490106691 423.7348091184229 814.7004490106691 415.2386629950756L814.7004490106691 415.2386629950756Q814.7004490106691 406.33921879625296 812.3613201729121 399.456264974807Q809.99530479679 392.5464246149961 805.8816644269416 387.9219400162121Q801.768024057093 383.2974554174281 796.0949644620731 380.93144004130613Q790.4219048670533 378.5654246651841 783.8884760443526 378.5654246651841L783.8884760443526 378.5654246651841Q777.6507991436673 378.5654246651841 772.1390587788376 380.93144004130613Q766.6004318756428 383.2974554174281 762.4061318906992 387.9219400162121Q758.1849453673906 392.5464246149961 755.7651569145385 399.456264974807Q753.3722550000515 406.33921879625296 753.3722550000515 415.2386629950756ZM922.2734890091266 365.713659326703L922.2734890091266 386.9809111734363L904.3132813812912 386.9809111734363L904.3132813812912 380.93144004130613Q901.1944429309484 380.93144004130613 897.9411717887807 382.1144477293671Q894.6879006466129 383.2974554174281 891.8379275799203 385.6903573319152Q889.014841051593 388.11014578476727 886.8908045207562 391.84737461750547Q884.7667679899193 395.58460345024366 883.7988526087785 400.6661592012331L883.7988526087785 400.6661592012331L883.7988526087785 447.9326936469437L900.4416198567278 447.9326936469437L900.4416198567278 464.19904935778266L851.857645031131 464.19904935778266L851.857645031131 447.9326936469437L865.3815738287377 447.9326936469437L865.4622334438328 382.51774580484243L851.857645031131 382.51774580484243L851.857645031131 366.2782766323685L883.1535756880179 366.2782766323685L883.1535756880179 379.8022054299751Q884.8474276050143 376.7640265947275 886.9714641358512 374.1560323733203Q889.095500666688 371.57492469027807 891.7034948880953 369.6390939279964Q894.3114891095025 367.70326316571476 897.4572140982103 366.6009150927488Q900.6298256252829 365.5254535581479 904.3132813812912 365.5254535581479L904.3132813812912 365.5254535581479Q909.2335179020903 365.5254535581479 913.5891371172241 365.5254535581479Q917.9447563323578 365.5254535581479 922.2734890091266 365.713659326703L922.2734890091266 365.713659326703ZM970.9650099881834 334.7134805918314L970.9650099881834 366.2782766323685L993.9261137519131 366.2782766323685L993.9261137519131 380.5550285041958L970.7768042196283 380.5550285041958L970.481052297613 437.0705321474743Q970.481052297613 442.8242513575893 971.7984926774991 446.42704749850236Q973.1428195957502 450.0298436394155 976.0734522775377 451.40105709603165Q979.0040849593253 452.7722705526478 982.6875407153335 452.7722705526478L982.6875407153335 452.7722705526478Q986.6398618549919 452.7722705526478 989.6780406902395 452.04633401679223Q992.6893329871222 451.3472840193016 996.2921291280353 449.65343210230515L996.2921291280353 449.65343210230515L1000.3519964211537 461.45662244455025Q995.8081714374647 463.8226378206723 990.8072753015705 465.1938512772885Q985.8063791656762 466.5650647339047 979.0040849593253 466.5650647339047L979.0040849593253 466.5650647339047Q972.5782022900847 466.5650647339047 967.7923984611106 465.0056455087333Q963.0065946321365 463.446226283562 959.7533234899687 459.7627705275538Q956.500052347801 456.0793147715457 954.8868600458997 449.8685244092253Q953.2736677439982 443.68462058527 953.2736677439982 434.4356513877021L953.2736677439982 434.4356513877021L953.5694196660135 380.5550285041958L937.9752274143001 380.5550285041958L937.9752274143001 366.2782766323685L953.7576254345686 366.2782766323685L953.7576254345686 342.8332151780684L970.9650099881834 334.7134805918314ZM1046.9463674077388 350.38833245863987L1046.9463674077388 366.2782766323685L1069.638605787818 366.2782766323685L1069.638605787818 380.5550285041958L1046.9463674077388 380.5550285041958L1046.9463674077388 447.9326936469437L1062.271694275802 447.9326936469437L1062.271694275802 464.19904935778266L1014.628748292981 464.19904935778266L1014.628748292981 447.9326936469437L1029.3625713170136 447.9326936469437L1029.3625713170136 380.5550285041958L1013.2037617596347 380.5550285041958L1013.2037617596347 366.2782766323685L1029.3625713170136 366.2782766323685L1029.3625713170136 350.95294976430534Q1029.5507770855688 342.456803640958 1031.8361328465958 336.1115805868126Q1034.0946020692577 329.7932440710322 1038.262015515836 325.5451710093585Q1042.429428962415 321.2702114093198 1048.29069432599 319.1999479552131Q1054.151959689565 317.1296845011063 1061.330665433026 317.1296845011063L1061.330665433026 317.1296845011063Q1066.3315615689203 317.1296845011063 1070.310769246944 317.5867556533117Q1074.263090386602 318.07071334388206 1077.381928836945 318.8773094948328Q1080.5007672872875 319.6839056457835 1082.9205557401397 320.6249344885593Q1085.3403441929918 321.56596333133507 1087.2224018785432 322.5069921741109L1087.2224018785432 322.5069921741109L1081.8450942055388 335.0898921289417Q1078.806915370291 333.4766998270403 1073.940451926222 332.34746521570935Q1069.0739884821528 331.2182306043784 1063.777340424243 331.2182306043784L1063.777340424243 331.2182306043784Q1055.9264712216564 331.2182306043784 1051.4364193146976 336.08469404844755Q1046.9463674077388 340.95115749251676 1046.9463674077388 350.38833245863987L1046.9463674077388 350.38833245863987ZM1083.7271518910902 415.2386629950756L1083.7271518910902 415.2386629950756Q1083.8078115061853 403.5967918830206 1087.4643807238285 394.05207076343737Q1091.0940634031067 384.5073496438542 1097.6274922258071 377.6512823607733Q1104.1340345101428 370.8221016160574 1113.1141383240606 367.11175932168425Q1122.0942421379782 363.42830356567606 1132.8757440223526 363.42830356567606L1132.8757440223526 363.42830356567606Q1143.737905521822 363.42830356567606 1152.7717824124697 367.11175932168425Q1161.8056593031174 370.8221016160574 1168.231541972358 377.57062274567824Q1174.6574246415985 384.319143875299 1178.2602207825116 393.8638649948822Q1181.8361303850597 403.40858611446544 1181.8361303850597 415.0504572265204L1181.8361303850597 415.0504572265204Q1181.8361303850597 426.47723603165525 1178.2602207825116 436.0757302279685Q1174.6574246415985 445.67422442428176 1168.231541972358 452.5840647840927Q1161.8056593031174 459.46701860553856 1152.7717824124697 463.3117935917369Q1143.737905521822 467.1296820395702 1132.8757440223526 467.1296820395702L1132.8757440223526 467.1296820395702Q1121.825376754328 467.1296820395702 1112.8452729404103 463.3386801301019Q1103.8651691264927 459.5745647589987 1097.439286457252 452.71849747591784Q1091.0134037880116 445.8624301928369 1087.4106076470985 436.3177090732537Q1083.8078115061853 426.7729879536705 1083.7271518910902 415.2386629950756ZM1102.3326364396862 415.2386629950756L1102.3326364396862 415.2386629950756Q1102.3326364396862 423.6541495033278 1104.7524248925383 430.45644370967864Q1107.1722133453904 437.25873791602953 1111.3665133303339 442.0445417450036Q1115.5876998536428 446.8034590356127 1121.0994402184724 449.41145325701996Q1126.638067121667 451.99256094006216 1132.8757440223526 451.99256094006216L1132.8757440223526 451.99256094006216Q1139.409172845053 451.99256094006216 1145.028459363343 449.46522633374997Q1150.6477458816328 446.9110051890728 1154.8151593282114 442.1252013600987Q1158.955686236425 437.36628406948955 1161.321701612547 430.53710332477374Q1163.6877169886689 423.7348091184229 1163.6877169886689 415.2386629950756L1163.6877169886689 415.2386629950756Q1163.6877169886689 406.33921879625296 1161.321701612547 399.456264974807Q1158.955686236425 392.5464246149961 1154.8420458665764 387.9219400162121Q1150.7284054967279 383.2974554174281 1145.082232440073 380.93144004130613Q1139.409172845053 378.5654246651841 1132.8757440223526 378.5654246651841L1132.8757440223526 378.5654246651841Q1126.638067121667 378.5654246651841 1121.0994402184724 380.93144004130613Q1115.5876998536428 383.2974554174281 1111.3665133303339 387.9219400162121Q1107.1722133453904 392.5464246149961 1104.7524248925383 399.456264974807Q1102.3326364396862 406.33921879625296 1102.3326364396862 415.2386629950756ZM1200.0920899349103 333.36915367358023L1200.0920899349103 317.1296845011063L1231.8450917440027 317.1296845011063L1231.8450917440027 447.9326936469437L1246.5789147680352 447.9326936469437L1246.5789147680352 464.19904935778266L1200.0920899349103 464.19904935778266L1200.0920899349103 447.9326936469437L1214.2612956532776 447.9326936469437L1214.2612956532776 333.36915367358023L1200.0920899349103 333.36915367358023ZM1263.0334762474295 382.51774580484243L1263.0334762474295 366.2782766323685L1294.9746838250771 366.2782766323685L1294.9746838250771 447.9326936469437L1309.7353933874747 447.9326936469437L1309.7353933874747 464.19904935778266L1263.2216820159847 464.19904935778266L1263.2216820159847 447.9326936469437L1277.2026819657967 447.9326936469437L1277.2026819657967 382.51774580484243L1263.0334762474295 382.51774580484243ZM1273.895637746899 331.5946421414887L1273.895637746899 331.5946421414887Q1273.895637746899 329.12108061190656 1274.8904396664047 326.9163844659747Q1275.8852415859105 324.6848017816778 1277.5522069645417 323.0178364030463Q1279.1922858048083 321.37775756277995 1281.4776415658353 320.38295564327404Q1283.7361107884972 319.38815372376826 1286.2903319331745 319.38815372376826L1286.2903319331745 319.38815372376826Q1288.7370069243916 319.38815372376826 1290.9685896086885 320.38295564327404Q1293.2001722929854 321.37775756277995 1294.840251133252 323.0178364030463Q1296.5072165118831 324.6848017816778 1297.475131893024 326.9163844659747Q1298.4699338125301 329.12108061190656 1298.4699338125301 331.5946421414887L1298.4699338125301 331.5946421414887Q1298.4699338125301 334.1219767478009 1297.475131893024 336.40733250882784Q1296.5072165118831 338.6658017314898 1294.840251133252 340.41342672521625Q1293.2001722929854 342.16105171894276 1290.9685896086885 343.15585363844866Q1288.7370069243916 344.1506555579545 1286.2903319331745 344.1506555579545L1286.2903319331745 344.1506555579545Q1283.7361107884972 344.1506555579545 1281.4776415658353 343.15585363844866Q1279.1922858048083 342.16105171894276 1277.5522069645417 340.41342672521625Q1275.8852415859105 338.6658017314898 1274.8904396664047 336.40733250882784Q1273.895637746899 334.1219767478009 1273.895637746899 331.5946421414887ZM1324.5767625649673 415.2386629950756L1324.5767625649673 415.2386629950756Q1324.6574221800624 403.5967918830206 1328.3139913977056 394.05207076343737Q1331.9436740769838 384.5073496438542 1338.4771028996843 377.6512823607733Q1344.9836451840197 370.8221016160574 1353.9637489979377 367.11175932168425Q1362.9438528118553 363.42830356567606 1373.7253546962293 363.42830356567606L1373.7253546962293 363.42830356567606Q1384.5875161956988 363.42830356567606 1393.6213930863469 367.11175932168425Q1402.6552699769945 370.8221016160574 1409.0811526462348 377.57062274567824Q1415.5070353154756 384.319143875299 1419.0829449180237 393.8638649948822Q1422.6857410589364 403.40858611446544 1422.6857410589364 415.0504572265204L1422.6857410589364 415.0504572265204Q1422.6857410589364 426.47723603165525 1419.0829449180237 436.0757302279685Q1415.5070353154756 445.67422442428176 1409.0811526462348 452.5840647840927Q1402.6552699769945 459.46701860553856 1393.6213930863469 463.3117935917369Q1384.5875161956988 467.1296820395702 1373.7253546962293 467.1296820395702L1373.7253546962293 467.1296820395702Q1362.674987428205 467.1296820395702 1353.6948836142874 463.3386801301019Q1344.7147798003698 459.5745647589987 1338.262010592764 452.71849747591784Q1331.8361279235237 445.8624301928369 1328.2602183209756 436.3177090732537Q1324.6574221800624 426.7729879536705 1324.5767625649673 415.2386629950756ZM1343.1822471135633 415.2386629950756L1343.1822471135633 415.2386629950756Q1343.1822471135633 423.6541495033278 1345.6020355664155 430.45644370967864Q1348.0218240192676 437.25873791602953 1352.216124004211 442.0445417450036Q1356.4104239891544 446.8034590356127 1361.9490508923495 449.41145325701996Q1367.4876777955442 451.99256094006216 1373.7253546962293 451.99256094006216L1373.7253546962293 451.99256094006216Q1380.2318969805651 451.99256094006216 1385.87807003722 449.46522633374997Q1391.4973565555097 446.9110051890728 1395.6378834637235 442.1252013600987Q1399.8052969103019 437.36628406948955 1402.171312286424 430.53710332477374Q1404.537327662546 423.7348091184229 1404.537327662546 415.2386629950756L1404.537327662546 415.2386629950756Q1404.537327662546 406.33921879625296 1402.171312286424 399.456264974807Q1399.8052969103019 392.5464246149961 1395.6916565404536 387.9219400162121Q1391.5780161706048 383.2974554174281 1385.904956575585 380.93144004130613Q1380.2318969805651 378.5654246651841 1373.7253546962293 378.5654246651841L1373.7253546962293 378.5654246651841Q1367.4876777955442 378.5654246651841 1361.9490508923495 380.93144004130613Q1356.4104239891544 383.2974554174281 1352.216124004211 387.9219400162121Q1348.0218240192676 392.5464246149961 1345.6020355664155 399.456264974807Q1343.1822471135633 406.33921879625296 1343.1822471135633 415.2386629950756Z " fill="#fcedda" transform="matrix(0.6150339529953546,0,0,0.6150339529953546,0,58.82692816466451)"/></g></svg>